<svg xmlns="http://www.w3.org/2000/svg" viewBox="0 0 200 150" width="800" height="600" role="img" aria-label="Ilustración referencial de equipo">
  <defs>
    <pattern id="g" width="12.5" height="12.5" patternUnits="userSpaceOnUse">
      <path d="M12.5 0 L0 0 L0 12.5" fill="none" stroke="#ffffff" stroke-opacity="0.05" stroke-width="0.6"/>
    </pattern>
    <linearGradient id="fade" x1="0" y1="0" x2="0" y2="1">
      <stop offset="0" stop-color="#ffffff" stop-opacity="0.05"/>
      <stop offset="1" stop-color="#ffffff" stop-opacity="0"/>
    </linearGradient>
  </defs>
  <rect width="200" height="150" fill="#071628"/>
  <rect width="200" height="150" fill="url(#g)"/>
  <rect width="200" height="150" fill="url(#fade)"/>
  <path d="M0 126 L200 126" stroke="#c8f83c" stroke-width="0.8" stroke-opacity="0.55"/>
  <g transform="translate(0 0) scale(1) translate(0 0)" transform-origin="100 85">
    <g>
      <path d="M132 76 L158 56 L172 84" stroke="#eef3fa" stroke-width="6" stroke-linecap="round" fill="none"/>
      <path d="M166 84 L184 82 L182 100 L164 96 Z" fill="#c8f83c"/>
      <rect x="74" y="72" width="58" height="26" rx="4" fill="#7ba0cd" opacity="0.35" stroke="#eef3fa" stroke-width="2.5"/>
      <path d="M80 72 L82 50 L116 50 L118 72 Z" fill="#040e1b" stroke="#eef3fa" stroke-width="2.5" stroke-linejoin="round"/>
      <path d="M74 80 L46 94 L28 94 L28 108 L50 108 L76 94 Z" fill="#c8f83c" opacity="0.9"/>
      <circle cx="62" cy="106" r="12" fill="#040e1b" stroke="#eef3fa" stroke-width="2.5"/>
      <circle cx="122" cy="102" r="20" fill="#040e1b" stroke="#eef3fa" stroke-width="2.5"/>
      <circle cx="122" cy="102" r="7" fill="#c8f83c"/>
    </g></g>
  <g opacity="0.75">
    <rect x="8" y="132" width="86" height="11" rx="2.5" fill="#040e1b" fill-opacity="0.75"/>
    <text x="13" y="140" font-family="Verdana, DejaVu Sans, sans-serif" font-size="5.6" fill="#eef3fa" letter-spacing="0.5">ILUSTRACIÓN REFERENCIAL</text>
  </g>
</svg>